<?xml version="1.0" standalone="no"?>
<!DOCTYPE svg PUBLIC "-//W3C//DTD SVG 20010904//EN"
 "http://www.w3.org/TR/2001/REC-SVG-20010904/DTD/svg10.dtd">
<svg version="1.0" xmlns="http://www.w3.org/2000/svg"
 width="720.000000pt" height="1280.000000pt" viewBox="0 0 720.000000 1280.000000"
 preserveAspectRatio="xMidYMid meet">
<metadata>
Created by potrace 1.16, written by Peter Selinger 2001-2019
</metadata>
<g transform="translate(0.000000,1280.000000) scale(0.100000,-0.100000)"
fill="#000000" stroke="none">
<path d="M3445 9210 c-527 -33 -1024 -260 -1411 -645 -193 -192 -310 -353
-427 -590 -143 -289 -210 -546 -226 -872 -18 -345 34 -652 161 -953 47 -112
127 -262 137 -258 39 17 191 112 191 119 0 5 -26 62 -59 127 -236 472 -262
1045 -70 1549 254 670 845 1149 1564 1269 123 21 418 23 555 5 533 -70 1005
-347 1341 -786 101 -132 237 -388 290 -547 77 -233 104 -423 96 -696 -8 -307
-55 -499 -190 -772 -39 -80 -73 -148 -74 -151 -3 -5 125 -85 199 -126 4 -2 30
41 57 95 169 337 239 605 248 953 8 289 -20 491 -101 742 -240 735 -859 1308
-1601 1482 -226 53 -439 70 -680 55z"/>
<path d="M3399 8295 c-205 -33 -360 -89 -534 -193 -199 -119 -404 -342 -513
-558 -43 -86 -108 -278 -129 -382 -28 -139 -23 -394 10 -539 33 -142 113 -337
135 -328 13 5 179 102 191 111 2 2 -7 30 -21 61 -34 78 -64 174 -79 253 -19
101 -16 320 5 420 99 463 445 805 918 906 101 22 319 24 428 5 377 -67 704
-327 857 -682 120 -277 121 -601 3 -883 -16 -38 -28 -71 -26 -74 2 -2 47 -30
100 -62 l97 -59 19 32 c31 50 79 192 106 307 47 209 42 429 -17 660 -58 224
-182 435 -360 612 -203 201 -434 325 -714 383 -110 23 -365 29 -476 10z"/>
<path d="M3550 7403 c-139 -15 -254 -67 -370 -166 -88 -75 -170 -222 -190
-340 -12 -68 -11 -230 2 -242 4 -4 56 13 115 38 l108 46 7 71 c20 223 236 393
444 350 174 -36 299 -177 312 -351 4 -59 8 -69 26 -75 11 -4 61 -26 110 -50
50 -24 93 -41 96 -38 3 3 6 51 8 107 6 166 -30 278 -132 413 -118 158 -347
259 -536 237z"/>
<path d="M3552 6834 c-31 -22 -54 -69 -46 -99 19 -74 114 -102 168 -49 78 79
-31 212 -122 148z"/>
<path d="M3119 6273 c-234 -251 -314 -336 -379 -408 -31 -33 -125 -134 -210
-225 -85 -91 -234 -251 -330 -355 -96 -104 -236 -255 -310 -335 -74 -80 -200
-217 -280 -305 -80 -87 -206 -224 -280 -305 -438 -474 -675 -734 -678 -741 -2
-5 121 -9 275 -9 l279 0 105 141 c394 531 535 721 572 769 24 30 99 132 167
225 68 94 158 215 199 271 91 121 207 278 541 734 139 190 301 410 360 490 58
80 121 166 139 193 66 96 2 44 -170 -140z"/>
<path d="M3232 6253 c-76 -114 -273 -413 -437 -663 -164 -250 -359 -547 -433
-660 -241 -365 -430 -655 -699 -1070 -76 -118 -147 -227 -157 -242 l-18 -28
124 0 124 0 24 43 c38 69 285 497 410 712 65 110 178 306 252 435 152 264 475
824 611 1060 50 85 106 184 127 220 156 276 220 393 216 397 -2 3 -67 -89
-144 -204z"/>
<path d="M3821 6454 c2 -5 66 -120 143 -254 187 -330 202 -357 372 -650 81
-140 189 -327 239 -415 51 -88 125 -216 165 -285 40 -69 132 -228 205 -355 72
-126 210 -365 305 -530 96 -165 183 -317 194 -337 l21 -38 123 0 123 0 -12 22
c-7 12 -58 92 -114 178 -56 85 -123 189 -150 230 -97 150 -201 310 -340 520
-78 118 -152 233 -165 255 -13 22 -107 166 -209 320 -101 154 -231 352 -289
440 -409 621 -591 893 -602 900 -7 4 -11 4 -9 -1z"/>
<path d="M3890 6454 c0 -7 103 -149 366 -504 108 -146 255 -346 326 -445 72
-99 168 -229 213 -290 45 -60 165 -222 265 -360 101 -137 238 -324 304 -414
244 -330 597 -807 614 -829 l17 -23 284 3 283 3 -98 105 c-86 91 -319 346
-709 775 -197 217 -547 598 -624 680 -42 44 -124 132 -182 195 -219 239 -648
701 -789 850 -80 85 -168 179 -194 208 -42 45 -76 66 -76 46z"/>
<path d="M3566 6348 c-3 -7 -7 -50 -10 -95 l-6 -83 61 0 62 0 -7 53 c-3 28 -6
71 -6 95 l0 42 -45 0 c-28 0 -47 -5 -49 -12z"/>
<path d="M3579 6013 l-46 -4 -6 -62 c-4 -34 -10 -99 -13 -144 l-7 -83 95 0 95
0 -4 53 c-2 28 -7 95 -11 147 -8 107 -2 101 -103 93z"/>
<path d="M3464 5243 c-10 -131 -19 -245 -19 -253 0 -13 24 -15 152 -15 l153 0
0 40 c0 22 -7 121 -15 220 -8 99 -15 195 -15 213 l0 32 -118 0 -119 0 -19
-237z"/>
<path d="M3406 4518 c-2 -7 -9 -85 -15 -173 -6 -88 -16 -212 -21 -275 -5 -63
-14 -173 -20 -245 -6 -71 -13 -154 -16 -182 l-5 -53 276 0 277 0 -6 48 c-6 48
-49 506 -70 752 l-11 135 -193 3 c-149 2 -193 0 -196 -10z"/>
</g>
</svg>
